<mxfile host="app.diagrams.net" modified="2024-06-25T03:33:24.929Z" agent="Mozilla/5.0 (Windows NT 10.0; Win64; x64) AppleWebKit/537.36 (KHTML, like Gecko) Chrome/126.0.0.0 Safari/537.36" etag="GIsPIPdCPOhV3zvuaOSI" version="24.5.5" type="github">
  <diagram name="Страница — 1" id="Z0kHqJ1dCbN4fKSeqbJ4">
    <mxGraphModel dx="1500" dy="757" grid="1" gridSize="10" guides="1" tooltips="1" connect="1" arrows="1" fold="1" page="1" pageScale="1" pageWidth="1169" pageHeight="827" math="0" shadow="0">
      <root>
        <mxCell id="0" />
        <mxCell id="1" parent="0" />
        <mxCell id="VQpvgcEVDO6ZWq1V-wag-1" value="" style="endArrow=none;html=1;rounded=0;" edge="1" parent="1">
          <mxGeometry width="50" height="50" relative="1" as="geometry">
            <mxPoint x="390" y="800" as="sourcePoint" />
            <mxPoint x="390" as="targetPoint" />
          </mxGeometry>
        </mxCell>
        <mxCell id="VQpvgcEVDO6ZWq1V-wag-4" value="Source Layer - слой источников данных" style="text;html=1;align=center;verticalAlign=middle;whiteSpace=wrap;rounded=0;fillColor=#ffe6cc;strokeColor=#d79b00;" vertex="1" parent="1">
          <mxGeometry x="10" y="10" width="360" height="30" as="geometry" />
        </mxCell>
        <mxCell id="VQpvgcEVDO6ZWq1V-wag-9" value="&lt;div&gt;Storage Layer - слой хранения данных&lt;/div&gt;" style="text;html=1;align=center;verticalAlign=middle;whiteSpace=wrap;rounded=0;fillColor=#ffe6cc;strokeColor=#d79b00;" vertex="1" parent="1">
          <mxGeometry x="405" y="10" width="360" height="30" as="geometry" />
        </mxCell>
        <mxCell id="VQpvgcEVDO6ZWq1V-wag-10" value="Business Layer - слой для доступа к данным бизнес пользователей" style="text;html=1;align=center;verticalAlign=middle;whiteSpace=wrap;rounded=0;fillColor=#ffe6cc;strokeColor=#d79b00;" vertex="1" parent="1">
          <mxGeometry x="800" y="10" width="360" height="30" as="geometry" />
        </mxCell>
        <mxCell id="VQpvgcEVDO6ZWq1V-wag-11" value="" style="endArrow=none;html=1;rounded=0;" edge="1" parent="1">
          <mxGeometry width="50" height="50" relative="1" as="geometry">
            <mxPoint x="780" y="800" as="sourcePoint" />
            <mxPoint x="780" as="targetPoint" />
          </mxGeometry>
        </mxCell>
        <mxCell id="VQpvgcEVDO6ZWq1V-wag-12" value="&lt;span style=&quot;color: rgb(55, 55, 55); font-family: Jost, sans-serif; font-size: 18px; font-style: normal; font-variant-ligatures: normal; font-variant-caps: normal; font-weight: 400; letter-spacing: normal; orphans: 2; text-align: start; text-indent: 0px; text-transform: none; widows: 2; word-spacing: 0px; -webkit-text-stroke-width: 0px; white-space: normal; background-color: rgb(255, 255, 255); text-decoration-thickness: initial; text-decoration-style: initial; text-decoration-color: initial; display: inline !important; float: none;&quot;&gt;Yandex DataLens&lt;/span&gt;" style="text;whiteSpace=wrap;html=1;" vertex="1" parent="1">
          <mxGeometry x="800" y="80" width="320" height="50" as="geometry" />
        </mxCell>
        <mxCell id="VQpvgcEVDO6ZWq1V-wag-13" value="&lt;span style=&quot;color: rgb(55, 55, 55); font-family: Jost, sans-serif; font-size: 18px; font-style: normal; font-variant-ligatures: normal; font-variant-caps: normal; font-weight: 400; letter-spacing: normal; orphans: 2; text-align: start; text-indent: 0px; text-transform: none; widows: 2; word-spacing: 0px; -webkit-text-stroke-width: 0px; white-space: normal; background-color: rgb(255, 255, 255); text-decoration-thickness: initial; text-decoration-style: initial; text-decoration-color: initial; display: inline !important; float: none;&quot;&gt;Excel&lt;/span&gt;" style="text;whiteSpace=wrap;html=1;" vertex="1" parent="1">
          <mxGeometry x="800" y="140" width="320" height="50" as="geometry" />
        </mxCell>
      </root>
    </mxGraphModel>
  </diagram>
</mxfile>
